<svg id="Capa_1" data-name="Capa 1" xmlns="http://www.w3.org/2000/svg" xmlns:xlink="http://www.w3.org/1999/xlink" viewBox="0 0 112.42 95.74"><defs><style>.cls-1{fill:#471d11;}.cls-2{fill:#f8a91f;}.cls-3{fill:url(#Degradado_sin_nombre_383);}</style><linearGradient id="Degradado_sin_nombre_383" x1="381.02" y1="400.29" x2="456.37" y2="400.29" gradientUnits="userSpaceOnUse"><stop offset="0" stop-color="#e94e00"/><stop offset="1" stop-color="#ffa72a"/></linearGradient></defs><path class="cls-1" d="M453.45,407.41c-3.55.43-47.85-.32-47.85-.32v-3.51h50.61S455.41,407.18,453.45,407.41Z" transform="translate(-343.95 -352.42)"/><path class="cls-1" d="M443.92,420c-3.33.35-44.82-1.3-44.82-1.3l.07-3.51,47.43,1S445.76,419.83,443.92,420Z" transform="translate(-343.95 -352.42)"/><path class="cls-1" d="M434.67,431.57c-3.33.42-44.84-.33-44.84-.33v-3.51h47.43S436.51,431.33,434.67,431.57Z" transform="translate(-343.95 -352.42)"/><path class="cls-2" d="M385.8,432l-4,5.94L344,381.41s7.93,1.83,12.53,5.91c2,1.74,13.87,19.74,13.87,19.74Z" transform="translate(-343.95 -352.42)"/><path class="cls-2" d="M395.93,428.7l-4,5.93-36.14-55.75A24.67,24.67,0,0,1,366.61,384c2,1.74,13.87,19.74,13.87,19.74Z" transform="translate(-343.95 -352.42)"/><path class="cls-3" d="M381,437.08s23.27-40.88,28.77-49.47c4.8-7.5,9.64-15.26,18.43-21.5,6.47-4.61,28.15-13.69,28.15-13.69l-67.88,95.74Z" transform="translate(-343.95 -352.42)"/></svg>