<?xml version="1.0" encoding="UTF-8"?>
<svg version="1.1" xmlns="http://www.w3.org/2000/svg" width="2235" height="584">
<path d="M0 0 C-1.12921875 1.54880859 -1.12921875 1.54880859 -2.28125 3.12890625 C-9.34589219 12.84914033 -16.27374024 22.65600639 -23.12060547 32.53076172 C-27.09801485 38.26698707 -31.09247523 43.9898845 -35.125 49.6875 C-39.39179378 55.71749738 -43.64045241 61.75980781 -47.875 67.8125 C-48.45894531 68.64716797 -49.04289062 69.48183594 -49.64453125 70.34179688 C-51.42994563 72.89435085 -53.21503573 75.44713125 -55 78 C-62.13553381 88.20529182 -69.27810781 98.40510455 -76.46582031 108.57373047 C-82.67394597 117.36140404 -88.83465946 126.18228559 -95 135 C-102.1340188 145.20312503 -109.27436914 155.40128359 -116.46142578 165.56713867 C-120.32373472 171.03352596 -124.16452068 176.51476211 -128 182 C-132.31906804 188.17683312 -136.64898265 194.34562915 -141 200.5 C-147.69916114 209.97727045 -154.34956634 219.48850191 -161 229 C-167.65043665 238.51150236 -174.30145274 248.02229198 -181 257.5 C-182.48239387 259.59939958 -183.96447034 261.69902255 -185.44628906 263.79882812 C-186.51543854 265.31351255 -187.58513108 266.82781376 -188.65527344 268.34179688 C-203.59162784 289.48956163 -217.76383764 311.10971575 -231.70361328 332.92285156 C-232.71657471 334.50791504 -232.71657471 334.50791504 -233.75 336.125 C-234.43175293 337.19202148 -235.11350586 338.25904297 -235.81591797 339.35839844 C-240.94844937 347.38152707 -246.13999988 355.36445479 -251.35449219 363.33447266 C-255.94657231 370.36211126 -260.48337765 377.42366711 -265 384.5 C-270.73209903 393.48065806 -276.52241952 402.42058225 -282.35546875 411.3359375 C-286.94719427 418.36310654 -291.48369343 425.42416185 -296 432.5 C-301.73209903 441.48065806 -307.52241952 450.42058225 -313.35546875 459.3359375 C-317.94719427 466.36310654 -322.48369343 473.42416185 -327 480.5 C-332.12421107 488.52826106 -337.28553407 496.53006149 -342.5 504.5 C-348.43372414 513.56962927 -354.2926602 522.6849668 -360.125 531.82006836 C-366.36168229 541.58260229 -372.66776282 551.29923644 -379 561 C-382.93799118 559.68733627 -383.55013078 558.04693743 -385.78125 554.578125 C-386.14732361 554.014422 -386.51339722 553.45071899 -386.89056396 552.86993408 C-388.10150573 551.00153511 -389.30074266 549.12591609 -390.5 547.25 C-391.34261901 545.94414137 -392.18605541 544.63880983 -393.03027344 543.33398438 C-394.34603932 541.29983522 -395.66101892 539.26521196 -396.97283936 537.22851562 C-400.02669938 532.48927386 -403.11823878 527.77661435 -406.234375 523.078125 C-407.08406843 521.79400093 -407.93367886 520.50982193 -408.78320312 519.22558594 C-409.99804416 517.38928411 -411.21408967 515.5538729 -412.43530273 513.72180176 C-417.0953743 506.72480809 -421.33556986 499.63078753 -425.25292969 492.18847656 C-428.20257584 486.80524867 -431.59927194 481.73082958 -435 476.625 C-435.74717154 475.49412299 -436.49374109 474.36284805 -437.23974609 473.23120117 C-438.75759747 470.92954729 -440.27780206 468.62947707 -441.79980469 466.33056641 C-445.09721986 461.33907309 -448.36154912 456.32623711 -451.625 451.3125 C-452.85403301 449.4269962 -454.08319944 447.54157937 -455.3125 445.65625 C-455.91835937 444.72683594 -456.52421875 443.79742187 -457.1484375 442.83984375 C-459.03589555 439.94494501 -460.92408978 437.0505277 -462.8125 434.15625 C-468.71538266 425.10873528 -474.61460463 416.05890173 -480.5 407 C-482.10549849 404.52969866 -483.7111386 402.05948948 -485.31689453 399.58935547 C-486.47695449 397.80467372 -487.6367707 396.01983352 -488.79638672 394.23486328 C-490.67550831 391.34326049 -492.55613622 388.45264442 -494.4375 385.5625 C-495.05568604 384.61221924 -495.67387207 383.66193848 -496.31079102 382.68286133 C-499.52865846 377.74784905 -502.77340455 372.83318611 -506.0625 367.9453125 C-506.7129126 366.97779053 -507.3633252 366.01026855 -508.03344727 365.01342773 C-509.27972734 363.16374291 -510.53006364 361.31678306 -511.78491211 359.47290039 C-512.61647827 358.23914673 -512.61647827 358.23914673 -513.46484375 356.98046875 C-513.955896 356.25754639 -514.44694824 355.53462402 -514.95288086 354.78979492 C-516 353 -516 353 -516 351 C-539.1 351 -562.2 351 -586 351 C-586 366.51 -586 382.02 -586 398 C-556.3 398 -526.6 398 -496 398 C-496 407.9 -496 417.8 -496 428 C-525.7 428 -555.4 428 -586 428 C-586 444.5 -586 461 -586 478 C-551.35 478 -516.7 478 -481 478 C-481 487.9 -481 497.8 -481 508 C-527.53 508 -574.06 508 -622 508 C-622 446.29 -622 384.58 -622 321 C-579.925 320.505 -579.925 320.505 -537 320 C-540.3 315.05 -543.6 310.1 -547 305 C-549.11149108 301.77513267 -551.21818126 298.54838559 -553.3125 295.3125 C-554.42576352 293.59634266 -555.53904529 291.88019717 -556.65234375 290.1640625 C-557.20776855 289.3071582 -557.76319336 288.45025391 -558.33544922 287.56738281 C-561.01222476 283.43875688 -563.69344941 279.31302558 -566.375 275.1875 C-567.17345337 273.95894287 -567.17345337 273.95894287 -567.98803711 272.70556641 C-574.64682912 262.46264607 -581.32402773 252.23172713 -588 242 C-604.37427342 216.90446474 -604.37427342 216.90446474 -611.06225586 206.59082031 C-614.04903046 201.98784165 -617.0532554 197.39703304 -620.07421875 192.81640625 C-620.75871094 191.77548828 -621.44320312 190.73457031 -622.1484375 189.66210938 C-623.47941758 187.63886666 -624.8138983 185.61792125 -626.15234375 183.59960938 C-626.755625 182.68115234 -627.35890625 181.76269531 -627.98046875 180.81640625 C-628.51567139 180.00631104 -629.05087402 179.19621582 -629.60229492 178.36157227 C-631.016796 175.97162137 -632.04003707 173.60198198 -633 171 C-627.06024297 171.628631 -621.7091014 173.21025875 -616.0625 175.125 C-614.67369629 175.59522583 -614.67369629 175.59522583 -613.25683594 176.07495117 C-554.92342497 196.18176763 -529.69513996 247.45860136 -497.59051514 296.51672363 C-495.33273207 299.9666032 -493.0703514 303.41332553 -490.80078125 306.85546875 C-478.25861992 325.95054403 -466.73360626 345.71699741 -455.09405518 365.36978149 C-448.41700693 376.6428663 -441.64809724 387.85600944 -434.81152344 399.03320312 C-432.81980603 402.29511012 -430.83458025 405.56092552 -428.8515625 408.828125 C-428.49508133 409.41544403 -428.13860016 410.00276306 -427.77131653 410.60787964 C-425.96450367 413.58527115 -424.15855967 416.56318773 -422.35327148 419.54150391 C-418.85469621 425.31128428 -415.34478109 431.07348768 -411.80859375 436.8203125 C-411.15503906 437.88507813 -410.50148438 438.94984375 -409.828125 440.046875 C-408.59351298 442.05694581 -407.35538397 444.06486185 -406.11328125 446.0703125 C-405.56929687 446.9571875 -405.0253125 447.8440625 -404.46484375 448.7578125 C-403.986521 449.5327002 -403.50819824 450.30758789 -403.01538086 451.10595703 C-402 453 -402 453 -402 455 C-401.34 455 -400.68 455 -400 455 C-399.74734375 454.13503906 -399.4946875 453.27007812 -399.234375 452.37890625 C-397.55381283 447.77863322 -394.93588124 443.98657427 -392.265625 439.90234375 C-390.67645709 437.12125768 -390.67645709 437.12125768 -391.74365234 434.6081543 C-392.96931672 432.06369791 -394.30545257 429.73966124 -395.8359375 427.3671875 C-396.68115967 426.04908081 -396.68115967 426.04908081 -397.54345703 424.7043457 C-398.14786621 423.77066162 -398.75227539 422.83697754 -399.375 421.875 C-400.6513522 419.88691808 -401.92738857 417.89863336 -403.203125 415.91015625 C-403.84314453 414.91516113 -404.48316406 413.92016602 -405.14257812 412.89501953 C-407.82486841 408.71434154 -410.47694047 404.51491301 -413.125 400.3125 C-414.10673483 398.7564877 -415.08850559 397.20049807 -416.0703125 395.64453125 C-416.55274414 394.87963379 -417.03517578 394.11473633 -417.53222656 393.32666016 C-419.51858477 390.17795861 -421.50666714 387.03034757 -423.49487305 383.8828125 C-424.4990646 382.29304615 -425.50313343 380.70320227 -426.50708008 379.11328125 C-428.96782116 375.21634259 -431.42977398 371.32018115 -433.89453125 367.42578125 C-440.10496966 357.60928182 -446.27466971 347.76802588 -452.42626953 337.91455078 C-457.77160393 329.35626365 -463.15209443 320.82068397 -468.54833984 312.29443359 C-471.03473533 308.36454042 -473.51712775 304.43211968 -476 300.5 C-476.99998164 298.91665507 -477.99998162 297.33332172 -479 295.75 C-481 292.58333333 -483 289.41666667 -485 286.25 C-485.4947583 285.46665283 -485.9895166 284.68330566 -486.49926758 283.8762207 C-487.50178243 282.28886474 -488.50422354 280.70146221 -489.5065918 279.11401367 C-491.96751963 275.21684605 -494.42961712 271.32042899 -496.89453125 267.42578125 C-503.10496966 257.60928182 -509.27466971 247.76802588 -515.42626953 237.91455078 C-520.77160393 229.35626365 -526.15209443 220.82068397 -531.54833984 212.29443359 C-534.03473537 208.36454037 -536.51708249 204.43209115 -539 200.5 C-539.49306641 199.71947266 -539.98613281 198.93894531 -540.49414062 198.13476562 C-543.03302278 194.11569858 -545.57046131 190.09573103 -548.10546875 186.07421875 C-548.6169043 185.26331787 -549.12833984 184.45241699 -549.65527344 183.61694336 C-550.66549153 182.01517786 -551.67526745 180.41313338 -552.68457031 178.81079102 C-555.01740448 175.11325663 -557.36445211 171.42687149 -559.75390625 167.765625 C-560.17712158 167.1156958 -560.60033691 166.4657666 -561.03637695 165.79614258 C-561.82381717 164.59019159 -562.61510123 163.38673846 -563.41088867 162.1862793 C-566 158.22043273 -566 158.22043273 -566 156 C-560.20202548 156.5680448 -555.01207145 157.69549823 -549.5 159.5625 C-548.72390381 159.82426025 -547.94780762 160.08602051 -547.14819336 160.35571289 C-534.99926333 164.60209671 -523.52973331 170.60507279 -513 178 C-512.14535156 178.57234375 -511.29070312 179.1446875 -510.41015625 179.734375 C-495.55970356 190.63779107 -485.893365 208.41215534 -475.921875 223.56640625 C-471.95960795 229.58607971 -467.93051303 235.55954744 -463.890625 241.52734375 C-463.25605377 242.4652626 -462.62148254 243.40318146 -461.96768188 244.36952209 C-459.39166709 248.17627525 -456.81528973 251.98277139 -454.23431396 255.78616333 C-446.58846942 267.05603309 -439.14633898 278.40738303 -432 290 C-430.94377656 291.67419749 -429.88446171 293.34645405 -428.8203125 295.015625 C-423.36891769 303.57648676 -418.03524757 312.19535453 -412.83666992 320.91210938 C-408.92917598 327.46299962 -404.9737702 333.98355962 -401.00506592 340.49752808 C-393.32000962 353.11299769 -385.7494876 365.79353563 -378.24389648 378.51660156 C-377.85655334 379.17183807 -377.46921021 379.82707458 -377.07012939 380.50216675 C-376.02163897 382.27592252 -374.97498453 384.05076322 -373.9284668 385.82568359 C-372.03129584 388.94848607 -370.04908961 391.9758736 -368 395 C-360.76998104 382.44711721 -353.66256244 369.830924 -346.64257812 357.15942383 C-342.08388205 348.93599616 -337.47948231 340.73989138 -332.84179688 332.56079102 C-330.06874461 327.66774199 -327.308165 322.76831575 -324.5703125 317.85546875 C-318.24552446 306.50636592 -311.828484 295.22398551 -305.25024414 284.01977539 C-301.07756329 276.89496213 -297.01543878 269.71445357 -293 262.5 C-286.69068142 251.17411134 -280.22330378 239.94864076 -273.63769531 228.78125 C-272.1129379 226.19179913 -270.59878666 223.59641829 -269.0859375 221 C-257.30982506 200.93030786 -244.43260394 181.26542942 -230 163 C-229.22197021 162.01 -229.22197021 162.01 -228.42822266 161 C-221.84370745 152.65526785 -215.0041746 144.63843218 -207.71484375 136.90234375 C-205.33242716 134.35538616 -203.03129563 131.76205323 -200.75 129.125 C-197.69857355 125.6629261 -194.44377407 122.64774321 -190.921875 119.671875 C-189.07539056 118.06558366 -187.38466977 116.38682386 -185.6875 114.625 C-181.61632667 110.49905752 -177.14005862 106.93407404 -172.61914062 103.31591797 C-170.91786815 101.93324929 -169.24711184 100.51909225 -167.578125 99.09765625 C-142.89727775 78.26377059 -114.18832863 62.32361836 -86.35380554 46.1204071 C-82.48400906 43.86733565 -78.62064223 41.60370175 -74.76171875 39.33203125 C-62.25951986 31.98215396 -49.65090124 24.84706672 -36.94921875 17.84765625 C-32.72007994 15.51544166 -28.5059793 13.16053817 -24.30830383 10.77220154 C-21.81057548 9.35142325 -19.30878905 7.93787397 -16.80679321 6.52462769 C-15.60926874 5.8455147 -14.41373848 5.16287223 -13.2203064 4.47659302 C-11.56874143 3.5273665 -9.9095382 2.59146697 -8.25 1.65625 C-7.30640625 1.11806641 -6.3628125 0.57988281 -5.390625 0.02539062 C-3 -1 -3 -1 0 0 Z " fill="#F27412" transform="translate(1547,1)"/>
<path d="M0 0 C5.93975703 0.628631 11.2908986 2.21025875 16.9375 4.125 C17.86336914 4.43848389 18.78923828 4.75196777 19.74316406 5.07495117 C78.07657503 25.18176763 103.30486004 76.45860136 135.40948486 125.51672363 C137.66726793 128.9666032 139.9296486 132.41332553 142.19921875 135.85546875 C154.74138008 154.95054403 166.26639374 174.71699741 177.90594482 194.36978149 C184.58464737 205.6456593 191.35491961 216.86183427 198.19287109 228.04199219 C200.17005004 231.27834724 202.14266695 234.51745804 204.11328125 237.7578125 C204.46712387 238.33949188 204.82096649 238.92117126 205.18553162 239.52047729 C206.98544677 242.48088915 208.78182525 245.44336787 210.57202148 248.40966797 C213.79904984 253.75315851 217.03852795 259.08479783 220.37278748 264.36227417 C221.46424971 266.09308586 222.54711117 267.82896537 223.62719727 269.56689453 C224.97065688 271.72400768 226.32985448 273.8714222 227.70678711 276.00732422 C228.30241455 276.9717041 228.89804199 277.93608398 229.51171875 278.9296875 C230.04240967 279.76741699 230.57310059 280.60514648 231.11987305 281.46826172 C232.35177315 285.0118967 231.50515902 286.60745746 230 290 C228.86204894 292.27539152 227.67275801 294.52551743 226.4453125 296.75390625 C226.10249237 297.3772435 225.75967224 298.00058075 225.40646362 298.64280701 C224.68440461 299.95260158 223.9598453 301.26102062 223.23291016 302.56811523 C222.12837938 304.55641666 221.0344041 306.55026221 219.94140625 308.54492188 C219.23500085 309.82326271 218.52798964 311.101269 217.8203125 312.37890625 C217.18367676 313.5294751 216.54704102 314.68004395 215.89111328 315.86547852 C214.12059925 318.80010666 212.20810414 321.38449544 210 324 C204.4132888 315.67446726 198.88616192 307.31465076 193.45092773 298.8894043 C189.56862387 292.87280405 185.66317141 286.87156585 181.75 280.875 C180.80145142 279.42130005 180.80145142 279.42130005 179.83374023 277.93823242 C178.53866636 275.95371591 177.24349965 273.96925998 175.94824219 271.98486328 C168.12295477 259.99589537 160.29979221 248.00557426 152.5 236 C150.89450151 233.52969866 149.2888614 231.05948948 147.68310547 228.58935547 C146.52304551 226.80467372 145.3632293 225.01983352 144.20361328 223.23486328 C142.32449169 220.34326049 140.44386378 217.45264442 138.5625 214.5625 C137.94431396 213.61221924 137.32612793 212.66193848 136.68920898 211.68286133 C133.47134154 206.74784905 130.22659545 201.83318611 126.9375 196.9453125 C126.2870874 195.97779053 125.6366748 195.01026855 124.96655273 194.01342773 C123.72027266 192.16374291 122.46993636 190.31678306 121.21508789 188.47290039 C120.38352173 187.23914673 120.38352173 187.23914673 119.53515625 185.98046875 C119.044104 185.25754639 118.55305176 184.53462402 118.04711914 183.78979492 C117 182 117 182 117 180 C93.9 180 70.8 180 47 180 C47 195.51 47 211.02 47 227 C76.7 227 106.4 227 137 227 C137 236.9 137 246.8 137 257 C107.3 257 77.6 257 47 257 C47 273.5 47 290 47 307 C81.65 307 116.3 307 152 307 C152 316.9 152 326.8 152 337 C105.47 337 58.94 337 11 337 C11 275.29 11 213.58 11 150 C39.05 149.67 67.1 149.34 96 149 C92.7 144.05 89.4 139.1 86 134 C83.88850892 130.77513267 81.78181874 127.54838559 79.6875 124.3125 C78.57423648 122.59634266 77.46095471 120.88019717 76.34765625 119.1640625 C75.79223145 118.3071582 75.23680664 117.45025391 74.66455078 116.56738281 C71.98777524 112.43875688 69.30655059 108.31302558 66.625 104.1875 C66.09269775 103.36846191 65.56039551 102.54942383 65.01196289 101.70556641 C58.35317088 91.46264607 51.67597227 81.23172713 45 71 C28.62572658 45.90446474 28.62572658 45.90446474 21.93774414 35.59082031 C18.95096954 30.98784165 15.9467446 26.39703304 12.92578125 21.81640625 C11.89904297 20.2550293 11.89904297 20.2550293 10.8515625 18.66210938 C9.52058242 16.63886666 8.1861017 14.61792125 6.84765625 12.59960938 C6.244375 11.68115234 5.64109375 10.76269531 5.01953125 9.81640625 C4.48432861 9.00631104 3.94912598 8.19621582 3.39770508 7.36157227 C1.983204 4.97162137 0.95996293 2.60198198 0 0 Z " fill="#F7A81E" transform="translate(914,172)"/>
<path d="M0 0 C10.23 0 20.46 0 31 0 C33.64 3.3 36.28 6.6 39 10 C41.05934651 12.54434674 43.1207958 15.0866633 45.1875 17.625 C46.3164167 19.01301233 47.44532264 20.40103342 48.57421875 21.7890625 C49.4257251 22.83562012 49.4257251 22.83562012 50.29443359 23.90332031 C53.0311648 27.26762715 55.76548008 30.6338958 58.5 34 C59.57811893 35.32682785 60.65624395 36.65365075 61.734375 37.98046875 C63.95364061 40.71182122 66.1723195 43.44364896 68.390625 46.17578125 C73.08543759 51.95735602 77.78055907 57.73849273 82.5 63.5 C87.78950668 69.9574452 93.04902661 76.43918576 98.31054688 82.91943359 C101.5748182 86.93939316 104.8406468 90.95808772 108.10644531 94.97680664 C110.91586358 98.43412678 113.72430491 101.89223402 116.53125 105.3515625 C117.11197266 106.06699219 117.69269531 106.78242188 118.29101562 107.51953125 C119.39419625 108.87864978 120.49708231 110.23800749 121.59960938 111.59765625 C122.10298828 112.21769531 122.60636719 112.83773437 123.125 113.4765625 C123.56070312 114.01361816 123.99640625 114.55067383 124.4453125 115.10400391 C126.61428396 117.7491409 128.81012137 120.37214564 131 123 C131.33 82.41 131.66 41.82 132 0 C143.55 0 155.1 0 167 0 C167 61.71 167 123.42 167 187 C137 187 137 187 129.8125 180.875 C127.29296875 176.98046875 127.29296875 176.98046875 126.15380859 174.96240234 C124.28848921 171.78985956 121.94629168 169.03311401 119.625 166.1875 C118.71911649 165.02648206 117.81551417 163.86368106 116.9140625 162.69921875 C113.68519944 158.56997819 110.34465839 154.53559499 107 150.5 C102.69577744 145.30565091 98.45329224 140.0755854 94.3125 134.75 C90.80731882 130.24333848 87.21221519 125.83769264 83.5 121.5 C79.78777751 117.16229883 76.19286104 112.75652791 72.6875 108.25 C68.01291513 102.24222419 63.20733999 96.35300551 58.35693359 90.48657227 C54.15449636 85.403762 49.97297194 80.30472732 45.8125 75.1875 C45.27189941 74.52379395 44.73129883 73.86008789 44.17431641 73.17626953 C43.6694873 72.55478027 43.1646582 71.93329102 42.64453125 71.29296875 C42.20471924 70.7518042 41.76490723 70.21063965 41.31176758 69.65307617 C39.83862549 67.79663748 38.42195091 65.89593455 37 64 C36.67 104.59 36.34 145.18 36 187 C24.12 187 12.24 187 0 187 C0 125.29 0 63.58 0 0 Z " fill="#632713" transform="translate(1510,322)"/>
<path d="M0 0 C15.13875 -0.0825 30.2775 -0.165 45.875 -0.25 C50.61858887 -0.28641602 55.36217773 -0.32283203 60.24951172 -0.36035156 C66.13500977 -0.37841797 66.13500977 -0.37841797 68.90823364 -0.3817749 C70.80581437 -0.38783446 72.70338175 -0.40172596 74.6008606 -0.42230225 C92.0082361 -0.60129006 108.18229345 1.10276031 124 9 C124.84691406 9.41765625 125.69382812 9.8353125 126.56640625 10.265625 C140.10113056 17.63664857 149.34027332 29.75719156 154.1875 44.23828125 C159.96371933 63.8718729 157.76091046 83.60521197 148.02734375 101.5 C141.85303953 112.3626763 131.43780174 120.1283437 120 125 C119.34 125 118.68 125 118 125 C125.73691697 136.13412964 133.47701078 147.26601115 141.25 158.375 C141.81364258 159.18146973 142.37728516 159.98793945 142.95800781 160.81884766 C145.7986558 164.87797117 148.65531929 168.92448319 151.5390625 172.953125 C152.10077148 173.74025879 152.66248047 174.52739258 153.24121094 175.33837891 C154.30550516 176.8279455 155.37367836 178.31475058 156.44628906 179.79833984 C160 184.77719878 160 184.77719878 160 187 C154.59277334 187.29819265 149.19038347 187.51502396 143.77685547 187.65917969 C141.93909334 187.71928585 140.10189954 187.80100838 138.26611328 187.90527344 C123.0463536 188.74760414 123.0463536 188.74760414 118.19555664 184.60498047 C116.13143787 181.49580408 114.55866408 178.38692938 113 175 C111.93380203 173.38227688 110.8302938 171.78825556 109.68359375 170.2265625 C109.15789795 169.4747168 108.63220215 168.72287109 108.09057617 167.94824219 C106.93419274 166.32305466 105.75670132 164.71277412 104.5637207 163.11425781 C101.1651466 158.48042693 98.55599329 154.19409705 96.484375 148.8203125 C93.67452176 142.3330239 90.86871974 135.90158531 84 133 C68.31256633 129.5269917 50.48343393 132.09645744 35 133 C35 150.82 35 168.64 35 187 C23.45 187 11.9 187 0 187 C0 125.29 0 63.58 0 0 Z M35 30 C35 54.09 35 78.18 35 103 C43.146875 103.061875 51.29375 103.12375 59.6875 103.1875 C62.23170654 103.21481201 64.77591309 103.24212402 67.3972168 103.27026367 C91.13632948 103.43947804 91.13632948 103.43947804 111.2890625 91.890625 C115.70210591 87.23687013 118.22769218 83.15095068 120 77 C120.18175781 76.39027344 120.36351562 75.78054688 120.55078125 75.15234375 C122.60363189 65.31651156 121.0341263 55.36028979 116.125 46.6875 C108.25670009 36.73641482 98.50377381 31.63606339 86 30 C82.08557538 29.86396832 78.17418371 29.88362699 74.2578125 29.90234375 C73.26128662 29.90335083 72.26476074 29.90435791 71.23803711 29.90539551 C67.53367961 29.91060736 63.82933859 29.92456857 60.125 29.9375 C47.688125 29.9684375 47.688125 29.9684375 35 30 Z " fill="#632713" transform="translate(731,322)"/>
<path d="M0 0 C352.77 0 705.54 0 1069 0 C1069 4.95 1069 9.9 1069 15 C716.23 15 363.46 15 0 15 C0 10.05 0 5.1 0 0 Z " fill="#632713" transform="translate(0,569)"/>
<path d="M0 0 C11.55 0 23.1 0 35 0 C35 25.41 35 50.82 35 77 C66.68 77 98.36 77 131 77 C131 51.59 131 26.18 131 0 C142.55 0 154.1 0 166 0 C166 61.71 166 123.42 166 187 C154.45 187 142.9 187 131 187 C131 160.6 131 134.2 131 107 C99.32 107 67.64 107 35 107 C35 133.4 35 159.8 35 187 C23.45 187 11.9 187 0 187 C0 125.29 0 63.58 0 0 Z " fill="#632713" transform="translate(276,322)"/>
<path d="M0 0 C45.54 0 91.08 0 138 0 C138 9.9 138 19.8 138 30 C104.34 30 70.68 30 36 30 C36 45.51 36 61.02 36 77 C65.7 77 95.4 77 126 77 C126 86.9 126 96.8 126 107 C96.3 107 66.6 107 36 107 C36 123.5 36 140 36 157 C70.65 157 105.3 157 141 157 C141 166.9 141 176.8 141 187 C94.47 187 47.94 187 0 187 C0 125.29 0 63.58 0 0 Z " fill="#632713" transform="translate(491,322)"/>
<path d="M0 0 C45.21 0 90.42 0 137 0 C137 9.9 137 19.8 137 30 C103.67 30 70.34 30 36 30 C36 45.51 36 61.02 36 77 C65.7 77 95.4 77 126 77 C126 86.9 126 96.8 126 107 C96.3 107 66.6 107 36 107 C36 123.5 36 140 36 157 C70.65 157 105.3 157 141 157 C141 166.9 141 176.8 141 187 C94.47 187 47.94 187 0 187 C0 125.29 0 63.58 0 0 Z " fill="#632713" transform="translate(1931,322)"/>
<path d="M0 0 C45.21 0 90.42 0 137 0 C137 9.9 137 19.8 137 30 C103.34 30 69.68 30 35 30 C35 45.51 35 61.02 35 77 C64.7 77 94.4 77 125 77 C125 86.9 125 96.8 125 107 C95.3 107 65.6 107 35 107 C35 123.5 35 140 35 157 C69.65 157 104.3 157 140 157 C140 166.9 140 176.8 140 187 C93.8 187 47.6 187 0 187 C0 125.29 0 63.58 0 0 Z " fill="#632713" transform="translate(1332,322)"/>
<path d="M0 0 C0.70640625 0.61101562 1.4128125 1.22203125 2.140625 1.8515625 C2.72328125 2.33882813 3.3059375 2.82609375 3.90625 3.328125 C5.328125 4.6015625 5.328125 4.6015625 7.140625 6.8515625 C6.90553427 10.89362355 4.44539487 12.89216564 1.66796875 15.6171875 C0.76884766 16.50664062 -0.13027344 17.39609375 -1.05664062 18.3125 C-2.00216797 19.23289062 -2.94769531 20.15328125 -3.921875 21.1015625 C-4.88154473 22.04617923 -5.84053729 22.99148445 -6.79882812 23.9375 C-9.14576328 26.24905422 -11.49940891 28.5533259 -13.859375 30.8515625 C-17.39485437 28.54493921 -20.74613918 26.18144183 -23.984375 23.4765625 C-38.44974293 12.16639228 -56.7138804 8.05135395 -74.81689453 10.06982422 C-92.6863095 12.53352597 -108.23238132 19.71062424 -119.859375 33.8515625 C-127.05685509 44.4240599 -132.01361309 55.95369335 -132.859375 68.8515625 C-132.9109375 69.55925781 -132.9625 70.26695312 -133.015625 70.99609375 C-133.75137785 89.48188408 -127.11663378 106.66855834 -114.6953125 120.2109375 C-99.59972706 134.37334129 -81.46707754 138.39225338 -61.41796875 138.13671875 C-49.9640056 137.74325445 -40.32291144 134.50202314 -29.859375 129.8515625 C-29.529375 112.0315625 -29.199375 94.2115625 -28.859375 75.8515625 C-25.30667101 77.6279145 -22.56634003 79.46228106 -19.421875 81.8515625 C-18.90616943 82.24239014 -18.39046387 82.63321777 -17.85913086 83.03588867 C-16.18938502 84.30369119 -14.52393251 85.57695711 -12.859375 86.8515625 C-11.99505859 87.51212646 -11.99505859 87.51212646 -11.11328125 88.18603516 C-7.3523873 91.06219765 -3.59775598 93.94616306 0.140625 96.8515625 C1.0076001 97.34841553 1.8745752 97.84526855 2.76782227 98.35717773 C6.4034125 102.17905503 5.96937419 105.91818272 6.015625 111.0234375 C6.03463867 112.01982239 6.05365234 113.01620728 6.07324219 114.04278564 C6.10292113 116.15077351 6.1188566 118.25899317 6.12207031 120.3671875 C6.14049833 123.57948203 6.2440235 126.78180318 6.3515625 129.9921875 C6.59390723 144.87327662 6.59390723 144.87327662 2.85839844 149.95825195 C0.02976457 152.05218514 -2.62397956 153.48638617 -5.859375 154.8515625 C-7.06887705 155.55291817 -8.27336608 156.26312452 -9.46875 156.98828125 C-26.48466991 165.39042081 -43.90576591 169.99611047 -62.859375 170.8515625 C-63.70113281 170.8928125 -64.54289062 170.9340625 -65.41015625 170.9765625 C-90.80338408 171.59309003 -116.45409948 164.70067 -135.859375 147.8515625 C-136.66761719 147.18640625 -137.47585938 146.52125 -138.30859375 145.8359375 C-155.2781248 131.38714843 -166.59292172 110.08546921 -168.859375 87.8515625 C-170.28008173 58.38375796 -166.49921246 33.57346199 -146.484375 10.6640625 C-109.49068809 -28.79166159 -42.27588933 -35.32082367 0 0 Z " fill="#632713" transform="translate(1881.859375,341.1484375)"/>
<path d="M0 0 C28.71 0 57.42 0 87 0 C104 26 104 26 106 30 C82.9 30 59.8 30 36 30 C36 45.51 36 61.02 36 77 C65.7 77 95.4 77 126 77 C126 86.9 126 96.8 126 107 C96.3 107 66.6 107 36 107 C36 123.5 36 140 36 157 C70.65 157 105.3 157 141 157 C141 166.9 141 176.8 141 187 C94.47 187 47.94 187 0 187 C0 125.29 0 63.58 0 0 Z " fill="#632713" transform="translate(925,322)"/>
<path d="M0 0 C1.57953779 0.00023397 1.57953779 0.00023397 3.19098544 0.00047267 C4.40303685 -0.00177462 5.61508826 -0.00402192 6.8638685 -0.00633731 C8.22896012 -0.00377101 9.59405157 -0.00111407 10.95914286 0.00162334 C12.39968984 0.00088459 13.84023666 -0.00029303 15.28078296 -0.00187316 C19.2758614 -0.00496277 23.27091468 -0.00175013 27.26599126 0.00240497 C31.59845369 0.00582175 35.93091342 0.00347172 40.26337635 0.00182748 C47.86861628 -0.00025238 55.47384841 0.00140792 63.07908743 0.00546569 C74.38792854 0.01148283 85.69676469 0.01180316 97.00560711 0.0109237 C116.02578063 0.00960751 135.04595068 0.01295987 154.06612318 0.01894111 C172.90792405 0.02485112 191.74972347 0.02870563 210.59152525 0.02979392 C211.7615332 0.02986266 212.93154114 0.0299314 214.13700387 0.03000222 C220.07849281 0.03034054 226.01998176 0.03064193 231.96147071 0.0309291 C274.0830404 0.03303145 316.2046082 0.03977421 358.32617682 0.04923171 C399.2555387 0.05841094 440.18490006 0.0654971 481.11426276 0.06973952 C483.00554025 0.06993681 483.00554025 0.06993681 484.93502537 0.07013809 C497.59661528 0.07145657 510.2582052 0.07273239 522.91979512 0.07397695 C548.71463377 0.0765134 574.50947238 0.07933465 600.30431097 0.08232803 C601.49040633 0.08246532 602.6765017 0.08260261 603.89853934 0.08274406 C683.1507051 0.09195011 762.40286979 0.10781668 841.65503424 0.12467116 C841.65503424 5.40467116 841.65503424 10.68467116 841.65503424 16.12467116 C559.17503424 16.12467116 276.69503424 16.12467116 -14.34496576 16.12467116 C-12.45679243 12.3483245 -10.46702182 9.66467115 -7.78246576 6.43717116 C-6.9768017 5.46392898 -6.17113763 4.49068679 -5.34105951 3.48795241 C-2.50764267 0.13331996 -2.50764267 0.13331996 0 0 Z " fill="#632713" transform="translate(1393.3449657596648,233.87532883509994)"/>
<path d="M0 0 C5.79797452 0.5680448 10.98792855 1.69549823 16.5 3.5625 C17.27609619 3.82426025 18.05219238 4.08602051 18.85180664 4.35571289 C31.00073667 8.60209671 42.47026669 14.60507279 53 22 C53.85464844 22.57234375 54.70929688 23.1446875 55.58984375 23.734375 C70.44029644 34.63779107 80.106635 52.41215534 90.078125 67.56640625 C94.04039205 73.58607971 98.06948697 79.55954744 102.109375 85.52734375 C103.06123184 86.93422203 103.06123184 86.93422203 104.03231812 88.36952209 C106.60833291 92.17627525 109.18471027 95.98277139 111.76568604 99.78616333 C119.41153058 111.05603309 126.85366102 122.40738303 134 134 C135.05622344 135.67419749 136.11553829 137.34645405 137.1796875 139.015625 C142.63108231 147.57648676 147.96475243 156.19535453 153.16333008 164.91210938 C157.07082402 171.46299962 161.0262298 177.98355962 164.99493408 184.49752808 C172.67999038 197.11299769 180.2505124 209.79353563 187.75610352 222.51660156 C188.33711823 223.49945633 188.33711823 223.49945633 188.92987061 224.50216675 C189.97836103 226.27592252 191.02501547 228.05076322 192.0715332 229.82568359 C193.96471697 233.05419773 193.96471697 233.05419773 196.30932617 236.10009766 C198 239 198 239 197.95019531 241.49511719 C196.79949496 244.52856673 195.39254674 247.25113381 193.796875 250.078125 C193.47720764 250.64899841 193.15754028 251.21987183 192.82818604 251.80804443 C191.80848789 253.62569713 190.77949267 255.43788033 189.75 257.25 C189.07358708 258.45146751 188.39780011 259.65328765 187.72265625 260.85546875 C186.41929177 263.17441711 185.11211282 265.49106641 183.80273438 267.80664062 C181.51463057 271.85978225 179.25217276 275.92680765 177 280 C171.53869808 275.29198111 168.29335642 269.26062482 164.625 263.125 C163.20023504 260.76782893 161.76900565 258.41463065 160.3359375 256.0625 C159.97435547 255.46825226 159.61277344 254.87400452 159.24023438 254.26174927 C155.70111902 248.46749553 151.99155503 242.79031117 148.25 237.125 C143.05433197 229.24154432 138.08825512 221.26010296 133.27636719 213.13745117 C129.27179034 206.39542336 125.05285156 199.81462455 120.765625 193.25 C112.55045779 180.66506299 104.66296849 167.86501318 96.70800781 155.11499023 C92.50599857 148.3880332 88.26720109 141.6857647 84 135 C78.43821981 126.28591485 72.94289418 117.53202152 67.47143555 108.76098633 C62.16260639 100.25233389 56.81504866 91.76876893 51.45166016 83.29443359 C48.46210152 78.5692617 45.47794384 73.8406762 42.49267578 69.11279297 C40.03195635 65.21605486 37.57012917 61.32002812 35.10546875 57.42578125 C28.87541221 47.57783366 22.68942679 37.70343988 16.52978516 27.8112793 C12.16179961 20.8126396 7.71850249 13.86799287 3.14819336 6.99951172 C0 2.21454847 0 2.21454847 0 0 Z " fill="#F7A81E" transform="translate(981,157)"/>
<path d="M0 0 C52.47 0 104.94 0 159 0 C159 9.9 159 19.8 159 30 C138.54 30 118.08 30 97 30 C97 81.81 97 133.62 97 187 C85.12 187 73.24 187 61 187 C61 135.19 61 83.38 61 30 C40.87 30 20.74 30 0 30 C0 20.1 0 10.2 0 0 Z " fill="#632713" transform="translate(92,322)"/>
</svg>
